<svg id="Layer_1" data-name="Layer 1" xmlns="http://www.w3.org/2000/svg" viewBox="0 0 1076 381"><path d="M231.87,79c15.83,22-.13,48.12-10.91,67.76-7,11.76-14.17,26.1-27.43,32.71-2.64.53-5.91.63-7.93-1.32,7.8-18.27,16.16-42.47,5.62-62.13-6-8.69-15.9-10.54-26.11-8.92-21,2.8-34.11,24-45.61,40-17,23.43-22,57.9-12.23,86.25,3.18,10.78,6.78,24.33,19.17,28.43,16.89,2.18,29.52-8,43.3-14.21,4.76-2.19,1.52-7.94,5.29-10.25,2.44-.69,5.28-1.45,7.93-.66,4.29,3.63,1.65,10.11,1,14.54-6.08,20.95-27.3,38.21-44.95,50.9-16,11-38.73,19.53-57.83,9.25C52.51,297.8,45.37,266.8,47.12,237c3.74-63.06,45.71-118.68,100.81-152,18-9.52,36.15-19,56.84-22.14C217,60.51,224.9,70.75,231.87,79Z"/><path d="M1038.6,277.31c-12.36-20-24.15-40.29-28.09-63.79-1-20,.63-39.75,7.6-56.84-1.19-1.82-3-2.25-5-2.31-2.18.29-4,2.14-5.29,4-14.84,28.49-42.5,61.87-75.35,68.41-4.43.33-9.82,1.16-13.22-2-3-3.6-1.49-9.42,0-13.22,9.78-18.7,17.22-41,38-52.55,14.71-6.9,30.21-11.76,45.94-16.19v-.33c-14-9.06-34.93-8.13-50.56-3.31-25.15-6.74-55.49-4-78,6.61-1-5.05,0-11.76-5.95-13.88,2.78-2.81,5.92-5.48,7.27-8.92.63-1.92.5-4.3-1.32-5.62a24.57,24.57,0,0,0-15.86-2.64c-13.36,3.67-26.67,7.4-40.65,9.58-9.32.79-20.3,2.31-27.77-3l21.49-27.43,25.44-30.41L854.19,46a5.3,5.3,0,0,0,.66-4.62c-1.22-3.34-4.79-4-7.6-5A28.57,28.57,0,0,0,825.77,48l-65.44,69.73c-15.57-.46-28.13-8.23-40.32-16.85-6.18-3.8-14.87-1.66-20.49,2-1.13,1.65-2,3.34-1.65,5.62.86,3.5,4.72,6.84,7.93,8.26l36,20.16,1.32,1.32-8.92,11.9-24.79,34.37a409,409,0,0,0-24.78,40.32c-3,3-6.35,7.44-11.24,5.62-3.54-2.45-4.86-6.38-5.62-10.25-1.19-22.14,4-42.46,8.26-62.79-2.47-2.64-6.24-4.1-9.58-2.64-9.72,10.14-14.41,22.93-20.16,35-9.62,17.09-17.48,35.26-32.39,49.9-4.66,2.78-11,4.5-16.52,2.32-3.34-1.79-4.27-5.16-4.3-8.6,2.41-27,26.87-49.7,49.24-63.45l26.77-21.48c-4.26-3.57-8.39-7.44-13.22-9.59-5.45-2-8.42,3.87-12.89,5.29l-30.4,14.54-.33-.33c5.05-7.57,8.29-15.86,10.9-24.45,1.69-6.42.37-13.22-4.95-17.52-4.79-3.17-11.64-2.45-16.86-.66l-49.57,14.87-23.14,1c-6.31,5.52-9.48,12.92-13.22,19.83l-11.23,11.9-24.13,26.77-21.81,27.43-.33-.33c8.72-20.75,18.87-42.47,14.21-67.09-1.32-4.13-4-8.59-8.59-9.58a16,16,0,0,1,11.23-5c1.42,0,3.11,1.45,4.3,0-.86-3.27-4.43-5.65-7.27-6.94-21.15-1.85-42.3.2-58.5,12.23-29.91,23.49-45.31,56-51.22,90.88-9.13,8.43-18.64,15.93-30.08,18.84-5.49.79-11.63.53-15.2-3.64,18.67-23,38.3-45.64,51.22-71.05,4.8-12.92,10.08-33-2-44.29-17.35-9.42-39.82-3.47-53.87,8.93-34.9,30.93-51.75,72.57-44.95,119.3l-.66.66c-10.94,2.28-25.81,5-34.7-3.63-4.33-4.83-4.26-12.76-2.64-18.84,9.12-37.71,24.75-72.74,45.27-105.76l39.66-57.17,21.49-28.76c3.83-6.6,14.67-10.74,11.56-19.82-2.64-3-7.93-1.13-11.89-1.66a31.25,31.25,0,0,0-7.28,4.3L303.26,57.86,270.87,98.51c-12.63,16.1-22.51,33.42-32.72,50.57L215,190.72,200.14,219.8l-7.6,17.85c-5.29,19.17-14,42.67-4,62.46,4,5.66,10,8,16.52,8.27,26.94-.8,48.55-14.41,69.74-29.09a78.25,78.25,0,0,0,8.26,9.26c8.42,8.39,21.41,11.76,32.72,7.27,17.51-8.79,34-20.1,49.9-32.72,9.45,8.72,22.28,13.25,35.36,9.25,16.07-6.31,30.44-19,42.31-33.38l.33.33c-1.49,2.78-2.84,5.59-4.63,8.27l-18.18,42.3-5.62,15.86a71.5,71.5,0,0,0,1,32.39c3,6.41,9.88,6.18,16.19,5.95,22.31-4.63,33.25-29.12,42-46.93l22.48-49.91,2.31-4.29c21-6.64,40.12-17.78,57.51-33.05l.33.33-5.62,10.58c-5.92,13.58-12.76,31.69-4.3,46.26,8.69,9.82,18.94,18.74,32.06,19.17,23.07-.1,40.15-14.54,56.51-30.73,4.8,3,10.18,4.69,15.54,6.28,8.52,1.48,16.46-.47,22.47-5.95,1.29,16.49,3.5,33.18,17.19,43.95,18.8,8.93,46.23,7.93,63.78-3,13.85-11.77,24.33-26.08,34.37-40-9,4.76-18,9.55-28.42,10.91-8.49,1.52-15.2-4.17-19.17-10.91-11.76-25.71,3.67-50.76,12.23-73.37l15.53-31.07,6-10.24c16.53.36,34.14,2.28,50.24-.33,1.75,0,3.57-1.79,4.95-.66a104.49,104.49,0,0,1-1,17.84c-5.75,30.9-18.41,58.9-32.72,86.26,9.79.46,19.83-.63,29.42-1.65,3.4-.69,7-1,9.58-3.64,7.07-9.42,8.63-21.11,15.2-30.73,12.23-16.82,28.72-35.36,47.93-42.31l.33.34-10.91,12.88c-13.12,18.38-27.17,37.22-24.13,61.48C866,254.7,874.45,269.94,888.56,273c35.89,10.22,70.43-5.62,92.87-35,7.6,15.53,18.67,33,35.36,41.31,5.92,1.89,12.43,5.26,18.84,3A5.47,5.47,0,0,0,1038.6,277.31ZM303.26,228.4c-5.95-3.31-7.8-10-7.27-16.86,1.25-21.25,14.84-38.47,32.05-51.89,2.58-1.75,7.41-4.66,9.59-.66,3.14,7,2.81,17.42-.66,24.13C328.71,199.45,316,213.92,303.26,228.4Zm143.76-42c-6.64,11.6-13.75,23-23.46,33.38-2.81,1.89-5.19,4.83-8.93,4.63a9.82,9.82,0,0,1-6.94-4c-3.67-9.74-.53-20.78,2.65-29.74,5.81-19.13,25.45-34.3,42.3-43.62C456.74,160.31,452.84,174.92,447,186.42ZM570.63,165.6c-14.61,22.67-38.14,37.88-61.48,46.6,3.9-15,12.37-28.12,19.83-41.64l37.35-19.17c2.78-1.19,7.11-3.44,9.58-.66C576.54,156.68,572.61,160.71,570.63,165.6Z"/></svg>